<svg width="212" height="271" viewBox="0 0 212 271" fill="none" xmlns="http://www.w3.org/2000/svg">
    <rect x="25.5" y="189.099" width="119.802" height="58.4009" rx="2.5" stroke="#0C050F" stroke-width="3"/>
    <path d="M26.7909 204.208V236.921H144.011V204.208M26.7909 204.208V193.639H144.011V204.208M26.7909 204.208H144.011M63.0732 211.757H106.612M63.0732 217.796H106.612M63.0732 224.339H106.612M63.0732 230.378H106.612M55.8168 206.724H33.4892C26.7909 212.26 26.7909 228.365 33.4892 234.405H55.8168V206.724ZM114.427 206.724H136.754C143.453 212.26 143.453 228.365 136.754 234.405H114.427V206.724ZM59.7241 206.724V234.405H111.078V206.724H59.7241Z" stroke="#0C050F" stroke-width="2"/>
    <path fill-rule="evenodd" clip-rule="evenodd" d="M43.5367 234.377H55.8168V219.809L55.8168 206.998H41.2129C37.3398 210.396 35.1638 215.004 35.1638 219.809C35.1638 224.615 37.3398 229.223 41.2129 232.621C41.9413 233.26 42.7184 233.846 43.5367 234.377Z" fill="#0C050F"/>
    <path d="M114.985 206.724C118.39 206.724 121.655 208.156 124.063 210.704C126.471 213.252 127.823 216.709 127.823 220.313C127.823 223.917 126.471 227.373 124.063 229.921C121.655 232.47 118.39 233.901 114.985 233.901L114.985 220.313L114.985 206.724Z" fill="#0C050F"/>
    <rect x="54.7622" y="86.9363" width="119.802" height="58.4009" rx="2.5" transform="rotate(20.8917 54.7622 86.9363)" stroke="#0C050F" stroke-width="3"/>
    <path d="M50.5806 101.512L38.9148 132.075L148.428 173.876L160.094 143.313M50.5806 101.512L54.3495 91.6376L163.863 133.439L160.094 143.313M50.5806 101.512L160.094 143.313M81.7855 121.503L122.462 137.029M79.6318 127.145L120.308 142.672M77.2987 133.258L117.975 148.784M75.145 138.9L115.821 154.426M76.8008 114.213L55.9411 106.251C47.709 109.035 41.9659 124.081 46.0701 132.112L66.9298 140.074L76.8008 114.213ZM131.557 135.114L152.417 143.076C156.701 150.637 150.958 165.683 142.546 168.937L121.686 160.975L131.557 135.114ZM80.4513 115.607L70.5802 141.468L118.558 159.78L128.429 133.92L80.4513 115.607Z" stroke="#0C050F" stroke-width="2"/>
    <path fill-rule="evenodd" clip-rule="evenodd" d="M55.4668 135.669L66.9397 140.049L72.1345 126.439L76.7032 114.469L63.0594 109.262C58.2292 111.055 54.5529 114.584 52.8393 119.074C51.1257 123.563 51.5152 128.644 53.9221 133.2C54.3747 134.057 54.8917 134.882 55.4668 135.669Z" fill="#0C050F"/>
    <path d="M132.079 135.313C135.26 136.527 137.8 139.029 139.141 142.269C140.482 145.508 140.513 149.22 139.228 152.587C137.942 155.954 135.446 158.7 132.288 160.223C129.13 161.745 125.569 161.918 122.387 160.704L127.233 148.008L132.079 135.313Z" fill="#0C050F"/>
    <rect x="120.44" y="2.119" width="119.802" height="58.4009" rx="2.5" transform="rotate(42.3223 120.44 2.119)" stroke="#0C050F" stroke-width="3"/>
    <path d="M111.222 14.1589L89.1962 38.3463L175.865 117.271L197.891 93.0831M111.222 14.1589L118.338 6.34454L205.007 85.2687L197.891 93.0831M111.222 14.1589L197.891 93.0831M132.965 44.1696L165.157 73.4843M128.899 48.6349L161.09 77.9496M124.494 53.4724L156.685 82.7871M120.427 57.9378L152.619 87.2525M130.989 35.5626L114.48 20.5295C105.8 20.1128 94.9569 32.0204 95.843 40.9957L112.351 56.0289L130.989 35.5626ZM174.323 75.0247L190.831 90.0579C192.056 98.6611 181.213 110.569 172.194 110.524L155.686 95.491L174.323 75.0247ZM133.878 38.1934L115.24 58.6597L153.209 93.236L171.847 72.7698L133.878 38.1934Z" stroke="#0C050F" stroke-width="2"/>
    <path fill-rule="evenodd" clip-rule="evenodd" d="M103.29 47.7402L112.37 56.0084L122.178 45.2375L130.804 35.7651L120.007 25.9323C114.855 25.8367 110.144 27.779 106.908 31.3319C103.673 34.8847 102.179 39.7571 102.755 44.8772C102.863 45.84 103.043 46.7967 103.29 47.7402Z" fill="#0C050F"/>
    <path d="M174.736 75.4005C177.253 77.6931 178.704 80.9502 178.768 84.4555C178.832 87.9608 177.505 91.427 175.079 94.0917C172.652 96.7563 169.325 98.4011 165.829 98.6642C162.333 98.9273 158.955 97.7872 156.437 95.4947L165.587 85.4476L174.736 75.4005Z" fill="#0C050F"/>
    <path d="M6 204V265H164V204" stroke="#0C050F" stroke-width="12"/>
</svg>
